<svg xmlns="http://www.w3.org/2000/svg" viewBox="0 0 400 250">
  <path d="M60,80 L100,50 L140,55 L165,80 L170,120 L165,145 L150,170 L120,185 L80,175 L50,140 L45,110 L60,80 
    M170,120 L185,105 L200,110 L205,125 L190,135 L175,130 L170,120
    M185,105 L240,65 L280,75 L300,100 L280,130 L240,140 L200,130 L205,125 L190,135 L175,130 L170,120 L185,105
    M170,120 L175,130 L190,135 L200,130 L240,140 L220,180 L180,190 L150,170 L165,145 L170,120
    M280,75 L320,80 L350,110 L345,150 L315,185 L280,180 L250,160 L240,140 L280,130 L300,100 L280,75"
  fill="none" stroke="#888" stroke-width="2"/>
</svg>